<?xml version="1.0" encoding="utf-8"?>
<!DOCTYPE svg PUBLIC "-//W3C//DTD SVG 1.0//EN" "http://www.w3.org/TR/2001/REC-SVG-20010904/DTD/svg10.dtd">
<svg version="1.0" xmlns="http://www.w3.org/2000/svg" width="2816px" height="1536px" viewBox="0 0 2816 1536" preserveAspectRatio="xMidYMid meet">
 <g fill="#f5c021">
  <path d="M1353.7 1257.3 c-6 -9.6 -47.4 -81.3 -48.3 -83.7 l-0.6 -1.5 8.5 -14.8 c4.6 -8.1 13.5 -23.8 19.7 -34.8 19.3 -34.1 22.2 -39 23.4 -39.7 l1.1 -0.8 51.2 0 51.2 0 2.4 3.3 c1.4 1.7 13.1 21.8 26.1 44.5 l23.6 41.3 0 1.6 0 1.6 -12.2 21.1 c-22.6 39.1 -32.5 56.1 -35.4 60.9 l-2.9 4.7 -52.7 0 -52.8 0 -2.3 -3.7z"/>
  <path d="M1167.8 1141.3 c-30.5 -51.9 -38.8 -66.9 -38.8 -70 l0 -1.8 8.1 -14 c4.5 -7.7 15.8 -27.4 25.1 -43.7 l17.1 -29.8 52.3 0 52.3 0 1.1 1.3 c0.6 0.6 4.6 7.3 8.9 14.7 4.3 7.4 13.9 24.1 21.3 37 7.5 12.9 15.1 26.3 16.9 29.7 l3.4 6.1 -1.1 3 c-0.6 1.6 -10.5 19 -21.9 38.8 -11.5 19.7 -22.5 38.7 -24.4 42.2 l-3.5 6.2 -52.6 0 -52.6 0 -11.6 -19.7z"/>
  <path d="M1528.4 1153.7 c-2.2 -3.9 -13.6 -23.8 -25.2 -44 l-21.1 -36.8 1.2 -3.3 c0.7 -1.8 7.8 -14.7 15.9 -28.7 8 -14 18.8 -32.8 24 -41.9 l9.4 -16.5 52.9 0 53 0 12.4 21.5 c6.8 11.8 18.1 31.5 25.2 43.6 l12.9 22.2 0 1.8 0 1.8 -16 27.5 c-8.8 15.2 -20.2 34.8 -25.3 43.6 l-9.4 16 -52.9 0.2 -52.9 0.3 -4.1 -7.3z"/>
  <path d="M1016.5 1060.2 l-14 -0.3 -15 -25.7 c-19.7 -33.9 -35.5 -62.3 -35.5 -63.9 0 -0.8 3.9 -8.2 8.6 -16.6 16.2 -28.5 28.2 -49.2 35.2 -60.7 l6.9 -11.5 52.5 -0.3 52.5 -0.2 4.5 7.7 c2.4 4.3 10 17.5 16.7 29.3 6.8 11.8 16.4 28.4 21.3 36.8 l9 15.2 -20.5 35.8 c-11.3 19.6 -22.9 39.9 -25.9 44.9 l-5.3 9.3 -20 0.1 c-42.6 0.4 -57.5 0.4 -71 0.1z"/>
  <path d="M1373.2 1060 l-17.2 -0.5 -8.1 -14 c-10.9 -18.9 -34.7 -60.5 -39.1 -68.5 l-3.6 -6.5 1.5 -3 c2.6 -5 21.8 -38.7 36.1 -63.3 l13.5 -23.2 52.6 0.2 52.5 0.3 13.2 23 c7.3 12.7 18.7 32.4 25.4 43.9 l12.1 20.9 -0.5 2.1 c-0.3 1.1 -3.2 6.6 -6.4 12.1 -3.2 5.5 -10.1 17.4 -15.2 26.5 -14.3 25 -27.9 48.3 -29 49.4 l-1 1 -34.7 0 c-19.2 0.1 -42.6 -0.1 -52.1 -0.4z"/>
  <path d="M1744 1060.2 l-34.5 -0.2 -22.5 -39.2 c-12.4 -21.5 -23.9 -41.7 -25.7 -44.8 l-3.1 -5.7 4.2 -7.4 c2.4 -4.1 11.1 -19.1 19.3 -33.4 8.3 -14.3 17.9 -30.9 21.4 -37 l6.4 -11 52.5 0 52.4 0 6.9 11.5 c3.8 6.3 15.5 26.2 25.9 44.1 l18.8 32.7 -0.9 2.4 c-0.5 1.3 -5.4 10 -10.8 19.4 -5.5 9.3 -13.7 23.4 -18.3 31.4 -4.6 8 -11.2 19.2 -14.7 24.9 -3.5 5.7 -6.3 10.8 -6.3 11.2 l0 0.8 -18.2 0.3 c-10.1 0.2 -33.8 0.2 -52.8 0z"/>
  <path d="M1177.9 956.8 c-1.8 -3.6 -20.2 -35.5 -31.5 -54.8 -13 -22.3 -17.4 -30.3 -17.4 -32 0 -0.8 7.2 -13.8 15.9 -28.9 8.8 -15.2 20.2 -35 25.3 -44.1 l9.5 -16.5 52.1 -0.3 52.2 -0.2 2.6 4.2 c1.3 2.4 9.5 16.5 18 31.3 8.6 14.9 19.2 33.2 23.5 40.7 l8 13.6 -8.7 15.4 c-4.7 8.4 -12.1 21.2 -16.4 28.3 -4.2 7.2 -11.9 20.3 -17 29.3 l-9.3 16.2 -52.8 0 -52.8 0 -1.2 -2.2z"/>
  <path d="M1530.4 955.2 c-1.1 -2 -8.3 -14.5 -15.9 -27.7 -19.3 -33.4 -32.5 -56.9 -32.5 -57.7 0 -0.4 4.1 -7.9 9.1 -16.5 5 -8.7 15.1 -26.1 22.4 -38.8 7.3 -12.6 14.6 -25.2 16.2 -28 l2.9 -5 52.6 -0.3 52.5 -0.2 9 15.7 c5 8.7 13.4 23.5 18.8 32.8 5.3 9.4 12.8 22.3 16.6 28.7 l6.9 11.7 -10.9 19.3 c-6 10.6 -14.2 25 -18.3 31.9 -4 6.9 -10.4 18.2 -14.3 25.2 l-7 12.6 -53 0.1 -53 0 -2.1 -3.8z"/>
  <path d="M1004 858.4 l-1.5 -0.5 -6.4 -10.7 c-3.5 -5.9 -11.5 -19.7 -17.8 -30.7 -6.4 -11 -15.1 -26.2 -19.5 -33.8 l-8 -13.8 2.4 -4.7 c3.1 -6.1 27.2 -47.8 39.6 -68.6 l9.7 -16.1 52.6 -0.3 52.6 -0.2 11.5 19.7 c6.4 10.9 15.1 26.1 19.6 33.8 4.4 7.7 10.7 18.7 14.1 24.5 l6.1 10.5 0 1.6 0 1.5 -3.6 6 c-2 3.2 -10.7 18.3 -19.4 33.4 -18.1 31.5 -25.2 43.5 -27.5 46.8 l-1.6 2.2 -50.7 -0.1 c-27.9 -0.1 -51.4 -0.3 -52.2 -0.5z"/>
  <path d="M1355.8 857.3 c-1.7 -2 -13 -21.2 -27.8 -47.3 -5.1 -9.1 -12.2 -21.4 -15.8 -27.5 l-6.5 -11 0 -2.5 0.1 -2.5 24.9 -43.5 25 -43.5 52.7 0 52.8 0 10.7 18.5 c30 51.7 39.5 68.5 39.8 70.4 l0.4 2.1 -7.1 12 c-4 6.6 -12.2 20.8 -18.2 31.5 -13.2 23.2 -23.6 40.8 -25.6 43.2 l-1.4 1.7 -51.3 0.1 -51.2 0 -1.5 -1.7z"/>
  <path d="M1708.8 857.3 c-0.8 -1 -2.5 -3.6 -3.8 -5.8 -1.2 -2.2 -8 -13.9 -15 -26 -11.6 -20.1 -21.4 -37.3 -29.2 -51.3 l-3 -5.3 15.2 -26.7 c8.4 -14.7 20 -34.9 25.8 -45 l10.5 -18.2 52.6 0.2 52.6 0.3 5.1 8.5 c9.6 15.9 29.1 49.4 37.8 65.2 l8.8 15.7 -2.9 5.3 c-3.2 5.8 -27.5 47.6 -38.3 65.8 -3.7 6.3 -7.3 12.5 -7.9 13.7 -0.6 1.2 -1.8 2.9 -2.7 3.7 l-1.5 1.6 -51.3 0 -51.3 0 -1.5 -1.7z"/>
  <path d="M1179 755.5 c-0.7 -0.9 -8.5 -14 -17.2 -29.3 -8.8 -15.2 -19.8 -34.3 -24.4 -42.3 -4.6 -8 -8.4 -15.2 -8.4 -16 0 -1.4 15.5 -29.3 39 -70.1 l11.4 -19.8 52.7 0 52.7 0 4.9 8.8 c8 14.1 28.9 50.6 37.4 65.3 l7.9 13.6 0 1.9 c0 1.1 -0.6 2.8 -1.4 3.9 -0.7 1.1 -11.1 19.1 -23.1 40 -12 20.9 -22.9 39.7 -24.2 41.8 l-2.3 3.7 -51.9 0 -51.9 0 -1.2 -1.5z"/>
  <path d="M1523.8 741.7 c-11.6 -20.4 -29.3 -51 -36.2 -62.6 -3.1 -5.2 -5.6 -10.1 -5.6 -10.8 0 -0.7 2.2 -5.2 4.9 -10 8.4 -15.2 44.3 -77.7 45.4 -79 l0.9 -1.3 52.3 0 52.3 0 8.5 14.8 c4.6 8.1 15.4 27 24.1 42.1 8.6 15 16.4 28.7 17.2 30.3 l1.5 2.9 -10.7 18.2 c-5.8 10 -11.8 20.2 -13.3 22.7 -1.5 2.5 -8.3 14.3 -15.1 26.3 l-12.4 21.7 -52.6 0 -52.5 0 -8.7 -15.3z"/>
  <path d="M999.3 651.3 c-2 -3.2 -5.3 -8.7 -7.3 -12.3 -2 -3.6 -11.9 -20.8 -21.9 -38.4 l-18.3 -31.8 0.6 -3 0.6 -3 4.9 -8.2 c2.7 -4.4 12 -20.5 20.6 -35.6 8.7 -15.1 17.8 -30.8 20.2 -34.7 l4.5 -7.3 51.7 0 51.8 0 1.5 1.8 c0.9 0.9 6.6 10.7 12.9 21.7 6.2 11 16 28.1 21.8 38 5.8 9.9 11.7 20.4 13.2 23.3 l2.8 5.3 -0.9 2.3 c-0.4 1.3 -2.7 5.4 -5.1 9.2 -2.3 3.8 -12.6 21.5 -22.9 39.4 -10.3 17.9 -19.5 34 -20.6 35.7 l-1.9 3.3 -52.2 0 -52.2 0 -3.8 -5.7z"/>
  <path d="M1350.3 647 c-3.2 -5.4 -9.6 -16.7 -14.3 -25 -4.7 -8.2 -13.6 -23.8 -19.8 -34.6 l-11.3 -19.6 1.1 -3.2 c0.6 -1.7 3.4 -6.9 6.4 -11.6 2.9 -4.7 9.7 -16.4 15.1 -26 5.4 -9.6 14.1 -24.8 19.4 -33.8 l9.5 -16.2 52.4 0.2 52.4 0.3 20.7 36 c11.4 19.8 22.8 39.6 25.4 44 l4.7 8 0 1.5 c0 0.9 -2 4.9 -4.3 9 -2.4 4.1 -11.8 20.3 -20.8 36 -9.1 15.7 -18.7 32.2 -21.4 36.8 l-5 8.2 -52.2 0 -52.2 0 -5.8 -10z"/>
  <path d="M1707.2 653.4 c-1.3 -1.9 -9.2 -15.7 -17.6 -30.7 -8.4 -15 -18.8 -33 -23 -40.2 l-7.6 -12.9 0 -2.6 0 -2.6 6.8 -11.4 c3.8 -6.3 13.4 -23.1 21.5 -37.2 8 -14.1 16.4 -28.5 18.5 -32 l3.9 -6.3 52 -0.3 52 -0.2 9 15.2 c4.9 8.4 16.5 28.2 25.6 43.9 l16.7 28.7 0 2.4 0 2.4 -14.5 25.3 c-15.3 26.7 -21.1 36.6 -30.8 52.4 l-6 9.7 -52.1 0 -52.1 0 -2.3 -3.6z"/>
  <path d="M1165.3 530.8 c-7.7 -13.4 -19.3 -33.4 -25.7 -44.6 l-11.8 -20.2 19.8 -34.8 c10.9 -19.1 22.5 -39.5 25.8 -45.4 l6.1 -10.8 52.4 0.3 52.4 0.2 23.4 41 c12.9 22.6 24.5 42.8 25.8 45.1 l2.4 4.1 -9.9 17.4 c-5.4 9.6 -16.8 29.6 -25.3 44.4 l-15.4 27 -53.1 0.3 -53 0.2 -13.9 -24.2z"/>
  <path d="M1516.5 527.3 c-8.7 -15.3 -20.1 -35.1 -25.2 -44 -5.1 -8.9 -9.3 -16.7 -9.3 -17.4 0 -0.6 8.3 -15.6 18.3 -33.3 10.1 -17.6 21.6 -37.8 25.6 -44.8 l7.3 -12.8 51.1 0 51.2 0 1.1 0.8 c1.5 0.9 8.9 13.3 26.4 43.7 7.8 13.8 16.9 29.6 20.1 35.2 3.3 5.6 5.9 10.7 5.9 11.3 0 0.6 -4.8 9.2 -10.7 19.3 -15 25.7 -27.1 46.5 -34.1 58.7 l-6 10.5 -52.9 0.3 -52.9 0.2 -15.9 -27.7z"/>
  <path d="M1356 453.5 c-1.6 -1.9 -13.5 -22.3 -34.6 -59.4 l-15.6 -27.3 0 -2.5 0 -2.4 19.3 -33.7 c10.6 -18.5 21.8 -38 24.9 -43.2 l5.7 -9.5 52.6 -0.3 52.7 -0.2 2.4 3.7 c2.9 4.5 44.6 76.5 47 81 0.9 1.8 1.6 3.9 1.6 4.7 l0 1.5 -21.1 36.8 c-11.6 20.2 -23.2 40.3 -25.6 44.6 l-4.5 7.7 -51.8 0 -51.8 0 -1.2 -1.5z"/>
 </g>
</svg>